<svg width="88" height="24" viewBox="0 0 88 24" fill="none" xmlns="http://www.w3.org/2000/svg">
<path fill-rule="evenodd" clip-rule="evenodd" d="M18.4376 7.58594H9.38625C7.19719 7.58594 5.8243 9.13611 5.8243 11.3306V17.2513C5.8243 19.4458 7.18962 20.9959 9.38625 20.9959H18.4365C20.6342 20.9959 22.0006 19.4458 22.0006 17.2513V11.3306C22.0006 9.13611 20.6342 7.58594 18.4376 7.58594Z" stroke="#087F5B" stroke-width="1.5" stroke-linecap="round" stroke-linejoin="round"/>
<path d="M9.37215 12.0483H18.4473" stroke="#087F5B" stroke-width="1.5" stroke-linecap="round" stroke-linejoin="round"/>
<path d="M18.0853 7.58364L16.4995 4.94055C15.3633 3.06932 13.398 2.438 11.5117 3.57523L3.76296 8.23873C1.88415 9.36732 1.5058 11.4029 2.63438 13.2893L5.69581 18.3549C5.83851 18.6003 5.99634 18.8208 6.17687 19.0186V19.0262" stroke="#087F5B" stroke-width="1.5" stroke-linecap="round" stroke-linejoin="round"/>
<path d="M41.8842 8.70696C42.9532 8.70696 43.8186 9.05694 44.4804 9.75689C45.1422 10.4441 45.4731 11.3795 45.4731 12.5631V18.5H43.8122V12.6204C43.8122 11.8822 43.6214 11.3095 43.2396 10.9023C42.8578 10.495 42.3487 10.2914 41.7124 10.2914C40.9997 10.2914 40.427 10.5332 39.9943 11.0168C39.5743 11.4877 39.3643 12.2131 39.3643 13.193V18.5H37.7035V12.6204C37.7035 11.8822 37.519 11.3095 37.1499 10.9023C36.7936 10.495 36.3036 10.2914 35.68 10.2914C34.9801 10.2914 34.3946 10.5332 33.9238 11.0168C33.4656 11.5004 33.2365 12.2258 33.2365 13.193V18.5H31.5757V8.95513H33.2365V10.2341C33.8856 9.21602 34.8337 8.70696 36.0809 8.70696C37.3663 8.70696 38.3017 9.24783 38.8871 10.3296C39.5489 9.24783 40.5479 8.70696 41.8842 8.70696ZM55.3318 17.2973C54.3518 18.2646 53.1619 18.7482 51.762 18.7482C50.3621 18.7482 49.1722 18.2646 48.1922 17.2973C47.225 16.3301 46.7414 15.1402 46.7414 13.7276C46.7414 12.3149 47.225 11.125 48.1922 10.1578C49.1722 9.19057 50.3621 8.70696 51.762 8.70696C53.1619 8.70696 54.3518 9.19057 55.3318 10.1578C56.3117 11.125 56.8017 12.3149 56.8017 13.7276C56.8017 15.1402 56.3117 16.3301 55.3318 17.2973ZM51.762 17.1255C52.7165 17.1255 53.5183 16.801 54.1673 16.152C54.8164 15.5029 55.1409 14.6948 55.1409 13.7276C55.1409 12.7603 54.8164 11.9522 54.1673 11.3032C53.5183 10.6541 52.7165 10.3296 51.762 10.3296C50.8202 10.3296 50.0248 10.6541 49.3758 11.3032C48.7267 11.9522 48.4022 12.7603 48.4022 13.7276C48.4022 14.6948 48.7267 15.5029 49.3758 16.152C50.0248 16.801 50.8202 17.1255 51.762 17.1255ZM63.0129 8.70696C64.1329 8.70696 65.0301 9.0633 65.7046 9.77598C66.3791 10.4759 66.7163 11.4304 66.7163 12.6394V18.5H65.0555V12.7349C65.0555 11.9586 64.8455 11.3604 64.4256 10.9405C64.0056 10.5078 63.4265 10.2914 62.6884 10.2914C61.8612 10.2914 61.193 10.5523 60.684 11.0741C60.1749 11.5831 59.9204 12.3722 59.9204 13.4412V18.5H58.2596V8.95513H59.9204V10.3296C60.5949 9.24783 61.6257 8.70696 63.0129 8.70696ZM69.3748 7.21796C69.0566 7.21796 68.7894 7.10978 68.573 6.89343C68.3567 6.67708 68.2485 6.41619 68.2485 6.11075C68.2485 5.80532 68.3567 5.54442 68.573 5.32807C68.7894 5.099 69.0566 4.98446 69.3748 4.98446C69.6802 4.98446 69.9411 5.099 70.1575 5.32807C70.3738 5.54442 70.482 5.80532 70.482 6.11075C70.482 6.41619 70.3738 6.67708 70.1575 6.89343C69.9411 7.10978 69.6802 7.21796 69.3748 7.21796ZM68.5349 18.5V8.95513H70.1957V18.5H68.5349ZM77.1354 6.49255C75.4555 6.35256 74.6156 7.07797 74.6156 8.66878V8.95513H77.1354V10.5587H74.6156V18.5H72.9548V10.5587H71.4276V8.95513H72.9548V8.66878C72.9548 7.3834 73.3111 6.40983 74.0238 5.74805C74.7492 5.08627 75.7864 4.79992 77.1354 4.88901V6.49255ZM84.9352 8.95513H86.7105L82.8162 19.0918C82.4089 20.1735 81.8363 20.9944 81.0981 21.5544C80.3727 22.1271 79.5328 22.3816 78.5783 22.3179V20.7717C79.7491 20.8608 80.6081 20.2117 81.1554 18.8245L81.3272 18.4618L77.1656 8.95513H78.941L82.1862 16.4383L84.9352 8.95513Z" fill="#087F5B"/>
</svg>
